<svg data-v-23d2c5be="" version="1.0" xmlns="http://www.w3.org/2000/svg" xmlns:xlink="http://www.w3.org/1999/xlink" width="100%" height="100%" viewBox="0 0 340.000000 250.000000" preserveAspectRatio="xMidYMid meet" color-interpolation-filters="sRGB" class="el-tooltip" style="margin: auto;"><rect data-v-23d2c5be="" x="0" y="0" width="100%" height="100%" fill="#fff" fill-opacity="1" class="background"></rect> <rect data-v-23d2c5be="" x="0" y="0" width="100%" height="100%" fill="url(#watermark)" fill-opacity="1" class="watermarklayer"></rect> <g data-v-23d2c5be="" fill="#333" class="icon-text-wrapper icon-svg-group iconsvg" transform="translate(118.0901107788086,59.31874084472656)"><g class="iconsvg-imagesvg" transform="translate(21.885656356811523,0)"><rect fill="#333" fill-opacity="0" stroke-width="2" x="0" y="0" width="60" height="55.10452372905904" class="image-rect"></rect> <svg x="0" y="0" width="60" height="55.10452372905904" filtersec="colorsb7500105854" class="image-svg-svg primary"><svg xmlns="http://www.w3.org/2000/svg" viewBox="0 0 207.13 190.23"><defs><linearGradient id="a32ad7934-e9b1-420f-884a-2bbf5f4ef314" x1="72.94" y1="72.26" x2="207.13" y2="72.26" gradientUnits="userSpaceOnUse"><stop offset="0" stop-color="#0fd"></stop><stop offset="1" stop-color="#00d4ff"></stop></linearGradient><linearGradient id="badf1c4eb-fab7-4474-a4bf-326b87b0d0a1" x1="43.46" y1="78.08" x2="116" y2="78.08" gradientUnits="userSpaceOnUse"><stop offset="0" stop-color="#00d6f2"></stop><stop offset="1" stop-color="#1051b3"></stop></linearGradient><linearGradient id="c19262b24-e0a7-4d45-b30a-534d64078586" x1="130.37" y1="22.77" x2="175.9" y2="22.77" gradientUnits="userSpaceOnUse"><stop offset="0" stop-color="#0fd"></stop><stop offset="1" stop-color="#00d4ff"></stop></linearGradient><linearGradient id="d23d046ba-d509-45d6-aa96-e32dc3c54300" y1="137.75" x2="190.03" y2="137.75" gradientUnits="userSpaceOnUse"><stop offset="0" stop-color="#0fd"></stop><stop offset="1" stop-color="#00d4ff"></stop></linearGradient><linearGradient id="e2ac32992-a561-4a3a-bc5f-06a5fe4cd0fb" x1="171.83" y1="179.71" x2="115.97" y2="107.32" gradientUnits="userSpaceOnUse"><stop offset=".45" stop-color="#00d6f2"></stop><stop offset="1" stop-color="#1051b3"></stop></linearGradient></defs><g><g><path d="M72.94 53.22a46.26 46.26 0 0 1 66.57 1.19l16.66 17.88 23.55-23.54a16.06 16.06 0 1 1 22.71 22.71l-24.25 24.25a31.16 31.16 0 0 1-44.84-.8L116 76.3c-2.64-2.84-27.38-27.7-43.06-23.08z" fill="url(#a32ad7934-e9b1-420f-884a-2bbf5f4ef314)"></path><path d="M116 76.3a14 14 0 0 0-10.09-4.51 14.15 14.15 0 0 0-10.26 4.15l-24.78 24.78A16.06 16.06 0 1 1 48.16 78l24.78-24.78c8.97-8.96 28.15 8.17 43.06 23.08z" fill="url(#badf1c4eb-fab7-4474-a4bf-326b87b0d0a1)"></path><path d="M175.9 22.77A22.77 22.77 0 1 1 153.14 0a22.77 22.77 0 0 1 22.76 22.77z" fill="url(#c19262b24-e0a7-4d45-b30a-534d64078586)"></path><path d="M109.26 86.75a5.06 5.06 0 0 0-7.16 0l-36 36a15.23 15.23 0 0 1-21.54 0l-17.14-17.11A16.06 16.06 0 1 0 4.7 128.35l17.12 17.12a47.35 47.35 0 0 0 67 0l16.88-16.89 57 56.95a16.06 16.06 0 1 0 22.71-22.71z" fill="url(#d23d046ba-d509-45d6-aa96-e32dc3c54300)"></path><path d="M105.67 128.58l57 56.95a16.06 16.06 0 1 0 22.71-22.71s-35.05-35.06-43.54-43.54-20.94-5.92-36.17 9.3z" fill="url(#e2ac32992-a561-4a3a-bc5f-06a5fe4cd0fb)"></path></g></g></svg></svg> <!----></g> <g transform="translate(0,62.15251159667969)" mask="url(#ecc91216-a37a-498f-b3c3-488d1040719e)"><g fill-rule="" class="tp-name iconsvg-namesvg" transform="translate(0,0)"><g><path d="M37.92-20.09L37.92-20.09L24.49-20.09Q27.29-14.61 31.64-10.85L31.64-10.85Q35.61-14.82 37.92-20.09ZM47.96-32.07L47.96-32.07L22.93-32.07Q22.50-29.17 21.91-26.43L21.91-26.43L42.59-26.43Q44.42-26.43 45.17-25.22Q45.92-24.01 45.33-21.70L45.33-21.70Q42.59-12.94 36.95-6.88L36.95-6.88Q41.52-4.19 47.32-2.58L47.32-2.58Q49.90-1.99 50.62-0.89Q51.35 0.21 50.00 2.31L50.00 2.31Q48.39 4.57 45.17 3.76L45.17 3.76Q37.65 1.61 31.80-2.36L31.80-2.36Q26.86 1.34 20.30 3.76L20.30 3.76Q17.40 4.78 15.90 2.47L15.90 2.47Q13.70-0.81 17.99-2.15L17.99-2.15Q22.93-3.97 26.69-6.66L26.69-6.66Q22.13-11.49 19.39-17.03L19.39-17.03Q15.79-6.55 9.99 0.05L9.99 0.05Q7.25 2.79 4.73 0.64L4.73 0.64Q3.12-0.86 3.30-2.15Q3.49-3.44 5.16-5.05L5.16-5.05Q13.64-14.61 16.22-32.07L16.22-32.07L6.98-32.07Q3.81-32.07 3.81-35.23L3.81-35.23Q3.81-38.46 6.98-38.46L6.98-38.46L16.97-38.46Q17.29-43.13 17.35-44.10L17.35-44.10Q17.40-45.60 18.18-46.11Q18.96-46.62 20.68-46.62L20.68-46.62Q22.50-46.62 23.28-45.98Q24.06-45.33 24.01-43.67L24.01-43.67Q23.96-42.49 23.63-38.46L23.63-38.46L47.96-38.46Q51.13-38.46 51.13-35.23L51.13-35.23Q51.13-32.07 47.96-32.07ZM79.12-19.39L79.12-23.20L69.13-23.20L69.13-20.73Q69.13-19.39 70.47-19.39L70.47-19.39L79.12-19.39ZM79.12-28.14L79.12-31.90L70.47-31.90Q69.13-31.90 69.13-30.56L69.13-30.56L69.13-28.14L79.12-28.14ZM85.72-31.90L85.72-28.14L96.09-28.14L96.09-30.56Q96.09-31.90 94.75-31.90L94.75-31.90L85.72-31.90ZM85.72-23.20L85.72-19.39L94.75-19.39Q96.09-19.39 96.09-20.73L96.09-20.73L96.09-23.20L85.72-23.20ZM85.72-14.02L85.72-10.47L104.04-10.47Q107.10-10.47 107.10-7.41Q107.10-4.35 104.04-4.35L104.04-4.35L85.72-4.35L85.72 1.34Q85.72 4.62 82.45 4.62L82.45 4.62Q79.12 4.62 79.12 1.34L79.12 1.34L79.12-4.35L61.07-4.35Q58.01-4.35 58.01-7.41Q58.01-10.47 61.07-10.47L61.07-10.47L79.12-10.47L79.12-14.02L66.44-14.02Q64.83-14.02 63.84-15.01Q62.84-16.01 62.84-17.62L62.84-17.62L62.84-33.68Q62.84-35.29 63.84-36.25Q64.83-37.22 66.44-37.22L66.44-37.22L71.60-37.22Q71.01-38.40 69.29-40.98L69.29-40.98Q67.03-43.88 70.47-45.33L70.47-45.33Q72.72-46.30 74.28-44.42L74.28-44.42Q76.54-41.63 77.29-40.34L77.29-40.34Q77.77-39.58 77.42-38.59Q77.08-37.60 76.00-37.22L76.00-37.22L87.66-37.22Q89.43-39.91 90.99-43.08L90.99-43.08Q92.28-46.19 95.61-45.22L95.61-45.22Q99.58-44.10 97.06-40.34L97.06-40.34Q96.68-39.69 95.93-38.59Q95.18-37.49 94.96-37.22L94.96-37.22L99.15-37.22Q100.76-37.22 101.76-36.25Q102.75-35.29 102.75-33.68L102.75-33.68L102.75-17.62Q102.75-16.01 101.76-15.01Q100.76-14.02 99.15-14.02L99.15-14.02L85.72-14.02Z" transform="translate(-3.283582089552239, 46.62109375)"></path></g> <!----> <!----> <!----> <!----> <!----> <!----> <!----></g> <g fill-rule="" hollow-target="t-name" class="tp-slogan iconsvg-slogansvg" fill="#333" transform="translate(0,58.23999786376953)"><rect x="0" height="1" y="4.985000133514404" width="3.4840469360351562"></rect> <rect height="1" y="4.985000133514404" width="3.4840469360351562" x="100.33405303955078"></rect> <g transform="translate(6.484046936035156,0)"><path d="M1.73-5.53L0.84-5.53L0.84-8.58L1.73-8.58L1.73-5.53ZM3.42-5.53L2.53-5.53L2.53-8.58L3.42-8.58L3.42-5.53ZM9-9.75L9-9.75Q9.28-9.70 9.75-9.61L9.75-9.61Q10.45-9.52 10.41-9.47L10.41-9.47Q10.41-9.38 10.31-9.23L10.31-9.23Q10.08-9.05 9.98-8.77L9.98-8.77Q9.89-8.44 9.84-8.02L9.84-8.02Q9.80-7.83 9.80-7.78L9.80-7.78L13.73-7.78Q15.05-7.78 15.38-7.88L15.38-7.88L15.38-6.84Q15.09-6.94 13.73-6.94L13.73-6.94L9.61-6.94Q9.52-6.28 9.19-5.44L9.19-5.44L12.09-5.44Q12.61-5.44 13.31-5.48L13.31-5.48Q13.69-5.48 13.69-5.48L13.69-5.48Q12.80-2.72 11.67-1.27L11.67-1.27Q13.45-0.38 15.56-0.09L15.56-0.09Q15.28 0.14 15.09 0.66L15.09 0.66Q15 0.89 14.95 1.03L14.95 1.03Q12.38 0.23 11.06-0.66L11.06-0.66Q9.84 0.28 7.27 1.22L7.27 1.22Q7.08 0.94 6.70 0.42L6.70 0.42Q6.61 0.28 6.56 0.23L6.56 0.23Q9.14-0.28 10.41-1.31L10.41-1.31Q9.42-2.72 9.09-4.64L9.09-4.64L8.95-4.64Q7.36-1.27 5.77 0.05L5.77 0.05Q5.53 0 5.25-0.14L5.25-0.14Q4.92-0.33 4.59-0.42L4.59-0.42Q7.13-1.97 8.67-6.94L8.67-6.94L6.70-6.94Q5.44-6.94 5.20-6.84L5.20-6.84L5.20-7.88Q5.48-7.78 6.70-7.78L6.70-7.78L8.81-7.78Q8.81-7.78 8.81-7.83L8.81-7.83Q8.95-8.58 9-9.75ZM11.06-1.92L11.06-1.92Q11.81-2.77 12.38-4.64L12.38-4.64L9.98-4.64Q10.22-2.91 11.06-1.92ZM17.95-5.53L17.06-5.53L17.06-8.58L17.95-8.58L17.95-5.53ZM19.64-5.53L18.75-5.53L18.75-8.58L19.64-8.58L19.64-5.53ZM23.58-9.66L23.58-9.66Q23.72-9.61 23.95-9.47L23.95-9.47Q24.89-9 24.75-8.91L24.75-8.91Q24.75-8.86 24.61-8.77L24.61-8.77Q24.09-8.44 23.58-7.27L23.58-7.27L23.58-0.61Q23.58 0.66 23.63 0.94L23.63 0.94Q23.63 0.98 23.63 0.98L23.63 0.98L22.59 0.98Q22.59 0.98 22.59 0.94L22.59 0.94Q22.64 0.61 22.64-0.61L22.64-0.61L22.64-5.72Q21.75-4.31 21.38-3.80L21.38-3.80Q21.23-4.08 20.91-4.41L20.91-4.41Q20.72-4.55 20.67-4.64L20.67-4.64Q22.41-6.23 23.58-9.66ZM26.53-9.47L26.53-9.47Q26.81-9.38 27.23-9.28L27.23-9.28Q27.84-9.09 27.80-9.05L27.80-9.05Q27.80-8.95 27.70-8.86L27.70-8.86Q27.28-8.44 26.86-7.59L26.86-7.59L29.81-7.59Q30.47-7.59 31.83-7.69L31.83-7.69Q31.64-7.17 31.27-6.23L31.27-6.23Q30.84-5.11 30.66-4.69L30.66-4.69Q30.23-4.88 29.58-4.88L29.58-4.88Q30-5.44 30.52-6.75L30.52-6.75L26.39-6.75L25.08-4.55Q24.75-4.83 24.09-5.02L24.09-5.02Q25.78-6.80 26.53-9.47ZM27.38-6.14L27.38-6.14Q28.55-6.14 28.59-5.95L28.59-5.95Q28.59-5.95 28.55-5.86L28.55-5.86Q28.36-5.44 28.36-4.88L28.36-4.88L28.36 0.05Q28.69 0.98 26.44 1.13L26.44 1.13Q26.34 0.42 26.02 0L26.02 0Q25.97 0 25.97 0L25.97 0Q27.61 0.28 27.47-0.33L27.47-0.33L27.47-4.88Q27.47-5.86 27.38-6.14ZM25.69-4.08L25.69-4.08Q25.83-4.03 26.11-3.98L26.11-3.98Q26.86-3.80 26.81-3.75L26.81-3.75Q26.81-3.66 26.67-3.56L26.67-3.56Q26.48-3.42 26.39-3.23L26.39-3.23Q26.30-3 26.11-2.53L26.11-2.53Q25.59-1.17 25.03-0.23L25.03-0.23Q24.56-0.52 24.05-0.66L24.05-0.66Q25.17-2.20 25.69-4.08ZM28.97-3.66L29.86-4.03Q30.14-3.56 30.75-2.44L30.75-2.44Q31.31-1.41 31.73-0.70L31.73-0.70Q31.41-0.66 30.61-0.19L30.61-0.19Q29.86-2.34 28.97-3.66L28.97-3.66ZM38.11-9.52L38.11-9.52Q39.33-9.52 39.56-9.33L39.56-9.33Q39.56-9.28 39.47-9.19L39.47-9.19Q39.19-8.77 39.19-8.25L39.19-8.25L39.19-6.61L41.20-6.61Q42.33-6.61 42.89-6.70L42.89-6.70Q42.98-6.70 43.03-6.70L43.03-6.70L43.03-5.67Q43.03-5.67 42.94-5.67L42.94-5.67Q42.19-5.77 41.20-5.77L41.20-5.77L39.19-5.77L39.19-3.61L40.78-3.61Q41.77-3.61 42.33-3.70L42.33-3.70Q42.42-3.70 42.42-3.70L42.42-3.70L42.42-2.63Q42.42-2.63 42.33-2.63L42.33-2.63Q41.77-2.72 40.78-2.72L40.78-2.72L39.19-2.72L39.19-0.19L41.81-0.19Q42.70-0.19 43.41-0.28L43.41-0.28Q43.55-0.28 43.55-0.28L43.55-0.28L43.55 0.75Q43.50 0.75 43.41 0.75L43.41 0.75Q42.80 0.66 41.81 0.66L41.81 0.66L35.11 0.66Q34.27 0.66 33.47 0.75L33.47 0.75Q33.33 0.75 33.33 0.75L33.33 0.75L33.33-0.28Q33.38-0.28 33.52-0.28L33.52-0.28Q34.27-0.19 35.11-0.19L35.11-0.19L38.20-0.19L38.20-2.72L36.75-2.72Q35.91-2.72 35.20-2.63L35.20-2.63Q35.06-2.63 35.06-2.63L35.06-2.63L35.06-3.70Q35.06-3.70 35.20-3.70L35.20-3.70Q35.95-3.61 36.75-3.61L36.75-3.61L38.20-3.61L38.20-5.77L35.39-5.77Q34.69-4.55 34.31-3.94L34.31-3.94Q34.03-4.08 33.52-4.22L33.52-4.22Q33.28-4.31 33.28-4.31L33.28-4.31Q34.92-6.05 35.34-8.63L35.34-8.63Q36.61-8.34 36.70-8.11L36.70-8.11Q36.70-8.06 36.56-7.92L36.56-7.92Q36.14-7.45 35.81-6.61L35.81-6.61L38.20-6.61L38.20-8.34Q38.20-8.86 38.11-9.38L38.11-9.38Q38.11-9.47 38.11-9.52ZM54.09-9.52L54.09-9.52Q54.56-8.81 54.66-8.39L54.66-8.39Q54.66-8.39 54.52-8.39L54.52-8.39Q54.19-8.44 53.86-8.39L53.86-8.39Q53.72-8.39 53.11-8.30L53.11-8.30Q52.41-8.20 52.08-8.16L52.08-8.16L52.08-6.38L54-6.38Q54.94-6.38 55.55-6.47L55.55-6.47Q55.64-6.47 55.64-6.47L55.64-6.47L55.64-5.34Q55.64-5.34 55.55-5.34L55.55-5.34Q54.89-5.44 54-5.44L54-5.44L52.08-5.44L52.08-3.89L53.25-3.89Q54.14-3.89 54.52-3.98L54.52-3.98Q54.42-3.61 54.42-2.58L54.42-2.58L54.42-0.89Q54.47-0.05 54.52 0.61L54.52 0.61Q54.52 0.89 54.52 0.94L54.52 0.94L53.39 0.94Q53.48 0.75 53.48 0L53.48 0L49.73 0Q49.73 0.80 49.83 0.98L49.83 0.98L48.66 0.98Q48.66 0.94 48.66 0.75L48.66 0.75Q48.75 0.09 48.75-0.61L48.75-0.61L48.75-2.53Q48.75-3.47 48.61-3.98L48.61-3.98Q48.98-3.89 49.97-3.89L49.97-3.89L51.09-3.89L51.09-5.39L49.50-5.39Q48.70-5.39 48.09-5.30L48.09-5.30Q47.91-5.30 47.86-5.30L47.86-5.30L47.86-6.47Q47.86-6.47 48-6.47L48-6.47Q48.61-6.38 49.45-6.38L49.45-6.38L51.09-6.38L51.09-8.02Q50.16-7.88 48.75-7.69L48.75-7.69Q48.61-8.02 48.28-8.48L48.28-8.48Q48.19-8.67 48.19-8.67L48.19-8.67Q51.28-8.63 54.09-9.52ZM45.56-8.48L46.22-9.38Q46.83-9.05 48.14-8.11L48.14-8.11L47.48-7.22Q46.55-8.02 45.56-8.48L45.56-8.48ZM44.95-5.58L45.47-6.47Q46.59-6.05 47.53-5.44L47.53-5.44L46.97-4.45Q46.31-5.02 44.95-5.58L44.95-5.58ZM46.50-4.03L46.50-4.03L47.53-3.52Q47.39-2.91 47.16-1.97L47.16-1.97Q46.88-0.80 46.64-0.05L46.64-0.05Q46.55 0.14 46.55 0.61L46.55 0.61Q46.50 0.94 46.45 0.98L46.45 0.98Q46.36 1.08 45.33 0.19L45.33 0.19Q46.08-1.45 46.50-4.03ZM53.44-0.80L53.44-3L49.73-3L49.73-0.80L53.44-0.80ZM67.55-9.23L67.55-9.23L67.55-8.20Q66.56-8.25 64.92-8.30L64.92-8.30L62.86-8.30L62.86-7.22L64.36-7.22Q66-7.22 66.38-7.27L66.38-7.27Q66.38-6.98 66.33-6.19L66.33-6.19Q66.28-5.72 66.28-5.63L66.28-5.63L66.28-4.78Q66.28-3.75 66.38-2.91L66.38-2.91Q65.91-3 64.36-3L64.36-3L62.86-3Q62.72-1.55 62.20-0.89L62.20-0.89Q64.64-0.05 67.78-0.23L67.78-0.23Q67.36 0.23 67.22 0.89L67.22 0.89Q63.42 0.66 61.69-0.23L61.69-0.23Q60.66 0.66 57.66 1.13L57.66 1.13Q57.42 0.56 56.91 0.14L56.91 0.14Q59.81-0.05 60.89-0.70L60.89-0.70Q60.33-1.08 59.06-2.25L59.06-2.25L60-2.81Q60.75-1.78 61.45-1.31L61.45-1.31Q61.83-1.97 61.92-3L61.92-3L60.47-3Q59.95-3 58.45-2.91L58.45-2.91Q58.55-3.80 58.55-4.83L58.55-4.83L58.55-5.63Q58.50-6.75 58.45-7.27L58.45-7.27Q60.09-7.22 60.38-7.22L60.38-7.22L61.97-7.22L61.97-8.30L59.77-8.30Q58.45-8.30 57.38-8.20L57.38-8.20L57.38-9.23Q58.83-9.14 59.72-9.14L59.72-9.14L64.92-9.14Q66.47-9.19 67.55-9.23ZM65.30-6.47L62.86-6.47L62.86-5.53L65.30-5.53L65.30-6.47ZM61.97-5.53L61.97-6.47L59.48-6.47L59.48-5.53L61.97-5.53ZM65.30-3.75L65.30-4.78L62.86-4.78L62.86-3.75L65.30-3.75ZM61.97-4.78L59.48-4.78L59.48-3.75L61.97-3.75L61.97-4.78ZM75.80-9.75L75.80-9.75Q76.88-9.56 77.02-9.38L77.02-9.38Q77.02-9.33 76.92-9.23L76.92-9.23Q76.59-8.95 76.31-8.48L76.31-8.48L78.09-8.48Q79.13-8.48 79.64-8.58L79.64-8.58Q79.73-8.58 79.73-8.58L79.73-8.58L79.73-7.64Q79.73-7.64 79.64-7.64L79.64-7.64Q79.08-7.73 78.05-7.73L78.05-7.73L77.63-7.73Q77.77-7.41 77.95-6.98L77.95-6.98Q78.05-6.75 78.09-6.61L78.09-6.61L77.06-6.47Q76.88-7.45 76.69-7.73L76.69-7.73L75.94-7.73Q75.42-6.89 74.95-6.38L74.95-6.38L73.97-6.66Q75.14-7.50 75.80-9.75ZM71.20-9.70L71.20-9.70Q72.28-9.38 72.33-9.23L72.33-9.23Q72.33-9.19 72.19-9.09L72.19-9.09Q71.86-8.86 71.58-8.48L71.58-8.48L72.94-8.48Q73.83-8.48 74.39-8.58L74.39-8.58Q74.48-8.58 74.53-8.58L74.53-8.58L74.53-7.64Q74.48-7.64 74.39-7.64L74.39-7.64Q73.92-7.73 73.03-7.73L73.03-7.73L72.84-7.73Q73.03-7.31 73.27-6.61L73.27-6.61L72.28-6.56Q72.23-7.17 71.91-7.73L71.91-7.73L71.11-7.73Q71.02-7.64 70.97-7.55L70.97-7.55Q70.55-6.94 70.13-6.52L70.13-6.52Q69.98-6.38 69.80-6.19L69.80-6.19L68.81-6.66Q70.45-7.78 71.20-9.70ZM70.88-6.09L71.77-6.42Q72.28-5.72 72.66-4.92L72.66-4.92L71.77-4.55Q71.48-5.25 70.88-6.09L70.88-6.09ZM78.98-6.14L78.98-6.14Q78.89-5.77 78.89-4.88L78.89-4.88L78.89 0Q79.22 1.17 76.78 1.22L76.78 1.22Q76.64 0.42 76.36 0L76.36 0Q77.95 0.42 77.86-0.42L77.86-0.42L77.86-5.30L74.67-5.30Q73.78-5.30 73.08-5.20L73.08-5.20Q72.98-5.20 72.98-5.20L72.98-5.20L72.98-6.23Q73.03-6.23 73.13-6.23L73.13-6.23Q73.73-6.14 74.67-6.14L74.67-6.14L77.63-6.14Q78.19-6.14 78.66-6.19L78.66-6.19Q78.80-6.19 78.84-6.19L78.84-6.19Q78.98-6.23 78.98-6.14ZM69.98-5.06L69.98-5.06Q71.11-5.02 71.20-4.83L71.20-4.83Q71.20-4.78 71.16-4.69L71.16-4.69Q70.97-4.31 70.97-3.80L70.97-3.80L70.97-0.66Q70.97 0.47 71.06 1.03L71.06 1.03Q71.06 1.13 71.06 1.13L71.06 1.13L69.94 1.13Q70.03 0.70 70.03-0.61L70.03-0.61L70.03-3.84Q70.03-4.88 69.98-5.06ZM76.45-3.33L76.45-3.33L76.45-1.69Q76.45-0.70 76.55-0.33L76.55-0.33Q76.36-0.42 75.33-0.42L75.33-0.42L73.41-0.42Q72.42-0.42 72.23-0.33L72.23-0.33Q72.33-0.75 72.33-1.45L72.33-1.45L72.33-3.23Q72.33-4.13 72.23-4.50L72.23-4.50Q72.56-4.41 73.50-4.41L73.50-4.41L75.33-4.41Q76.45-4.41 76.55-4.45L76.55-4.45Q76.45-4.27 76.45-3.33ZM75.52-3.70L73.22-3.70L73.22-2.72L75.52-2.72L75.52-3.70ZM75.52-2.11L73.27-2.11L73.27-1.13L75.52-1.13L75.52-2.11ZM88.13-9.66L88.13-9.66Q89.53-9.42 89.48-9.23L89.48-9.23Q89.44-9.14 89.25-9L89.25-9Q88.64-8.63 88.08-7.64L88.08-7.64L89.16-7.64Q89.72-7.64 90.23-7.73L90.23-7.73Q90.33-7.73 90.38-7.73L90.38-7.73Q90.33-7.64 90.33-6.52L90.33-6.52L90.33-3.98Q90.33-3.56 90.38-3L90.38-3Q90.38-2.91 90.38-2.86L90.38-2.86Q90.33-2.91 89.02-2.91L89.02-2.91L86.86-2.91L86.86-1.92L89.25-1.92Q90.75-1.92 91.55-2.02L91.55-2.02Q91.64-2.02 91.69-2.02L91.69-2.02L91.69-0.89Q91.69-0.89 91.59-0.89L91.59-0.89Q90.70-1.08 89.30-1.08L89.30-1.08L86.86-1.08L86.86-0.23Q86.86 0.42 86.95 0.94L86.95 0.94Q86.95 1.03 86.95 1.08L86.95 1.08L85.83 1.08Q85.83 1.03 85.88 0.94L85.88 0.94Q85.97 0.52 85.97-0.23L85.97-0.23L85.97-1.08L83.44-1.08Q82.08-1.08 81.33-0.94L81.33-0.94Q81.23-0.94 81.19-0.94L81.19-0.94L81.19-1.97Q81.19-1.97 81.28-1.97L81.28-1.97Q81.89-1.92 83.39-1.92L83.39-1.92L85.97-1.92L85.97-2.91L83.67-2.91Q82.78-2.91 82.50-2.81L82.50-2.81Q82.59-3.28 82.59-4.27L82.59-4.27L82.59-6.47Q82.59-7.13 82.55-7.73L82.55-7.73Q82.92-7.64 83.86-7.64L83.86-7.64L84.84-7.64Q84.52-8.34 83.72-9.19L83.72-9.19L84.56-9.61Q85.13-9.19 85.83-8.16L85.83-8.16L84.94-7.64L87.14-7.64Q87.61-8.25 88.13-9.66ZM89.34-6.89L86.86-6.89L86.86-5.63L89.34-5.63L89.34-6.89ZM85.97-5.63L85.97-6.89L83.53-6.89L83.53-5.63L85.97-5.63ZM89.34-4.97L86.86-4.97L86.86-3.70L89.34-3.70L89.34-4.97ZM85.97-4.97L83.53-4.97L83.53-3.70L85.97-3.70L85.97-4.97Z" transform="translate(-0.84375, 9.75)"></path></g></g></g></g><mask id="ecc91216-a37a-498f-b3c3-488d1040719e"><g fill-rule="" class="tp-name iconsvg-namesvg" transform="translate(0,0)" fill="white"><g><path d="M37.92-20.09L37.92-20.09L24.49-20.09Q27.29-14.61 31.64-10.85L31.64-10.85Q35.61-14.82 37.92-20.09ZM47.96-32.07L47.96-32.07L22.93-32.07Q22.50-29.17 21.91-26.43L21.91-26.43L42.59-26.43Q44.42-26.43 45.17-25.22Q45.92-24.01 45.33-21.70L45.33-21.70Q42.59-12.94 36.95-6.88L36.95-6.88Q41.52-4.19 47.32-2.58L47.32-2.58Q49.90-1.99 50.62-0.89Q51.35 0.21 50.00 2.31L50.00 2.31Q48.39 4.57 45.17 3.76L45.17 3.76Q37.65 1.61 31.80-2.36L31.80-2.36Q26.86 1.34 20.30 3.76L20.30 3.76Q17.40 4.78 15.90 2.47L15.90 2.47Q13.70-0.81 17.99-2.15L17.99-2.15Q22.93-3.97 26.69-6.66L26.69-6.66Q22.13-11.49 19.39-17.03L19.39-17.03Q15.79-6.55 9.99 0.05L9.99 0.05Q7.25 2.79 4.73 0.64L4.73 0.64Q3.12-0.86 3.30-2.15Q3.49-3.44 5.16-5.05L5.16-5.05Q13.64-14.61 16.22-32.07L16.22-32.07L6.98-32.07Q3.81-32.07 3.81-35.23L3.81-35.23Q3.81-38.46 6.98-38.46L6.98-38.46L16.97-38.46Q17.29-43.13 17.35-44.10L17.35-44.10Q17.40-45.60 18.18-46.11Q18.96-46.62 20.68-46.62L20.68-46.62Q22.50-46.62 23.28-45.98Q24.06-45.33 24.01-43.67L24.01-43.67Q23.96-42.49 23.63-38.46L23.63-38.46L47.96-38.46Q51.13-38.46 51.13-35.23L51.13-35.23Q51.13-32.07 47.96-32.07ZM79.12-19.39L79.12-23.20L69.13-23.20L69.13-20.73Q69.13-19.39 70.47-19.39L70.47-19.39L79.12-19.39ZM79.12-28.14L79.12-31.90L70.47-31.90Q69.13-31.90 69.13-30.56L69.13-30.56L69.13-28.14L79.12-28.14ZM85.72-31.90L85.72-28.14L96.09-28.14L96.09-30.56Q96.09-31.90 94.75-31.90L94.75-31.90L85.72-31.90ZM85.72-23.20L85.72-19.39L94.75-19.39Q96.09-19.39 96.09-20.73L96.09-20.73L96.09-23.20L85.72-23.20ZM85.72-14.02L85.72-10.47L104.04-10.47Q107.10-10.47 107.10-7.41Q107.10-4.35 104.04-4.35L104.04-4.35L85.72-4.35L85.72 1.34Q85.72 4.62 82.45 4.62L82.45 4.62Q79.12 4.62 79.12 1.34L79.12 1.34L79.12-4.35L61.07-4.35Q58.01-4.35 58.01-7.41Q58.01-10.47 61.07-10.47L61.07-10.47L79.12-10.47L79.12-14.02L66.44-14.02Q64.83-14.02 63.84-15.01Q62.84-16.01 62.84-17.62L62.84-17.62L62.84-33.68Q62.84-35.29 63.84-36.25Q64.83-37.22 66.44-37.22L66.44-37.22L71.60-37.22Q71.01-38.40 69.29-40.98L69.29-40.98Q67.03-43.88 70.47-45.33L70.47-45.33Q72.72-46.30 74.28-44.42L74.28-44.42Q76.54-41.63 77.29-40.34L77.29-40.34Q77.77-39.58 77.42-38.59Q77.08-37.60 76.00-37.22L76.00-37.22L87.66-37.22Q89.43-39.91 90.99-43.08L90.99-43.08Q92.28-46.19 95.61-45.22L95.61-45.22Q99.58-44.10 97.06-40.34L97.06-40.34Q96.68-39.69 95.93-38.59Q95.18-37.49 94.96-37.22L94.96-37.22L99.15-37.22Q100.76-37.22 101.76-36.25Q102.75-35.29 102.75-33.68L102.75-33.68L102.75-17.62Q102.75-16.01 101.76-15.01Q100.76-14.02 99.15-14.02L99.15-14.02L85.72-14.02Z" transform="translate(-3.283582089552239, 46.62109375)"></path></g>       </g> <rect fill="#000" x="0" y="0" width="107.81809997558594" height="14.970000267028809" transform="translate(-2, 56.23999786376953)"></rect><g fill-rule="" hollow-target="t-name" class="tp-slogan iconsvg-slogansvg" transform="translate(0,58.23999786376953)" fill="#fff"><rect x="0" height="1" y="4.985000133514404" width="3.4840469360351562"></rect> <rect height="1" y="4.985000133514404" width="3.4840469360351562" x="100.33405303955078"></rect> <g transform="translate(6.484046936035156,0)"><path d="M1.73-5.53L0.84-5.53L0.84-8.58L1.73-8.58L1.73-5.53ZM3.42-5.53L2.53-5.53L2.53-8.58L3.42-8.58L3.42-5.53ZM9-9.75L9-9.75Q9.28-9.70 9.75-9.61L9.75-9.61Q10.45-9.52 10.41-9.47L10.41-9.47Q10.41-9.38 10.31-9.23L10.31-9.23Q10.08-9.05 9.98-8.77L9.98-8.77Q9.89-8.44 9.84-8.02L9.84-8.02Q9.80-7.83 9.80-7.78L9.80-7.78L13.73-7.78Q15.05-7.78 15.38-7.88L15.38-7.88L15.38-6.84Q15.09-6.94 13.73-6.94L13.73-6.94L9.61-6.94Q9.52-6.28 9.19-5.44L9.19-5.44L12.09-5.44Q12.61-5.44 13.31-5.48L13.31-5.48Q13.69-5.48 13.69-5.48L13.69-5.48Q12.80-2.72 11.67-1.27L11.67-1.27Q13.45-0.38 15.56-0.09L15.56-0.09Q15.28 0.14 15.09 0.66L15.09 0.66Q15 0.89 14.95 1.03L14.95 1.03Q12.38 0.23 11.06-0.66L11.06-0.66Q9.84 0.28 7.27 1.22L7.27 1.22Q7.08 0.94 6.70 0.42L6.70 0.42Q6.61 0.28 6.56 0.23L6.56 0.23Q9.14-0.28 10.41-1.31L10.41-1.31Q9.42-2.72 9.09-4.64L9.09-4.64L8.95-4.64Q7.36-1.27 5.77 0.05L5.77 0.05Q5.53 0 5.25-0.14L5.25-0.14Q4.92-0.33 4.59-0.42L4.59-0.42Q7.13-1.97 8.67-6.94L8.67-6.94L6.70-6.94Q5.44-6.94 5.20-6.84L5.20-6.84L5.20-7.88Q5.48-7.78 6.70-7.78L6.70-7.78L8.81-7.78Q8.81-7.78 8.81-7.83L8.81-7.83Q8.95-8.58 9-9.75ZM11.06-1.92L11.06-1.92Q11.81-2.77 12.38-4.64L12.38-4.64L9.98-4.64Q10.22-2.91 11.06-1.92ZM17.95-5.53L17.06-5.53L17.06-8.58L17.95-8.58L17.95-5.53ZM19.64-5.53L18.75-5.53L18.75-8.58L19.64-8.58L19.64-5.53ZM23.58-9.66L23.58-9.66Q23.72-9.61 23.95-9.47L23.95-9.47Q24.89-9 24.75-8.91L24.75-8.91Q24.75-8.86 24.61-8.77L24.61-8.77Q24.09-8.44 23.58-7.27L23.58-7.27L23.58-0.61Q23.58 0.66 23.63 0.94L23.63 0.94Q23.63 0.98 23.63 0.98L23.63 0.98L22.59 0.98Q22.59 0.98 22.59 0.94L22.59 0.94Q22.64 0.61 22.64-0.61L22.64-0.61L22.64-5.72Q21.75-4.31 21.38-3.80L21.38-3.80Q21.23-4.08 20.91-4.41L20.91-4.41Q20.72-4.55 20.67-4.64L20.67-4.64Q22.41-6.23 23.58-9.66ZM26.53-9.47L26.53-9.47Q26.81-9.38 27.23-9.28L27.23-9.28Q27.84-9.09 27.80-9.05L27.80-9.05Q27.80-8.95 27.70-8.86L27.70-8.86Q27.28-8.44 26.86-7.59L26.86-7.59L29.81-7.59Q30.47-7.59 31.83-7.69L31.83-7.69Q31.64-7.17 31.27-6.23L31.27-6.23Q30.84-5.11 30.66-4.69L30.66-4.69Q30.23-4.88 29.58-4.88L29.58-4.88Q30-5.44 30.52-6.75L30.52-6.75L26.39-6.75L25.08-4.55Q24.75-4.83 24.09-5.02L24.09-5.02Q25.78-6.80 26.53-9.47ZM27.38-6.14L27.38-6.14Q28.55-6.14 28.59-5.95L28.59-5.95Q28.59-5.95 28.55-5.86L28.55-5.86Q28.36-5.44 28.36-4.88L28.36-4.88L28.36 0.05Q28.69 0.98 26.44 1.13L26.44 1.13Q26.34 0.42 26.02 0L26.02 0Q25.97 0 25.97 0L25.97 0Q27.61 0.28 27.47-0.33L27.47-0.33L27.47-4.88Q27.47-5.86 27.38-6.14ZM25.69-4.08L25.69-4.08Q25.83-4.03 26.11-3.98L26.11-3.98Q26.86-3.80 26.81-3.75L26.81-3.75Q26.81-3.66 26.67-3.56L26.67-3.56Q26.48-3.42 26.39-3.23L26.39-3.23Q26.30-3 26.11-2.53L26.11-2.53Q25.59-1.17 25.03-0.23L25.03-0.23Q24.56-0.52 24.05-0.66L24.05-0.66Q25.17-2.20 25.69-4.08ZM28.97-3.66L29.86-4.03Q30.14-3.56 30.75-2.44L30.75-2.44Q31.31-1.41 31.73-0.70L31.73-0.70Q31.41-0.66 30.61-0.19L30.61-0.19Q29.86-2.34 28.97-3.66L28.97-3.66ZM38.11-9.52L38.11-9.52Q39.33-9.52 39.56-9.33L39.56-9.33Q39.56-9.28 39.47-9.19L39.47-9.19Q39.19-8.77 39.19-8.25L39.19-8.25L39.19-6.61L41.20-6.61Q42.33-6.61 42.89-6.70L42.89-6.70Q42.98-6.70 43.03-6.70L43.03-6.70L43.03-5.67Q43.03-5.67 42.94-5.67L42.94-5.67Q42.19-5.77 41.20-5.77L41.20-5.77L39.19-5.77L39.19-3.61L40.78-3.61Q41.77-3.61 42.33-3.70L42.33-3.70Q42.42-3.70 42.42-3.70L42.42-3.70L42.42-2.63Q42.42-2.63 42.33-2.63L42.33-2.63Q41.77-2.72 40.78-2.72L40.78-2.72L39.19-2.72L39.19-0.19L41.81-0.19Q42.70-0.19 43.41-0.28L43.41-0.28Q43.55-0.28 43.55-0.28L43.55-0.28L43.55 0.75Q43.50 0.75 43.41 0.75L43.41 0.75Q42.80 0.66 41.81 0.66L41.81 0.66L35.11 0.66Q34.27 0.66 33.47 0.75L33.47 0.75Q33.33 0.75 33.33 0.75L33.33 0.75L33.33-0.28Q33.38-0.28 33.52-0.28L33.52-0.28Q34.27-0.19 35.11-0.19L35.11-0.19L38.20-0.19L38.20-2.72L36.75-2.72Q35.91-2.72 35.20-2.63L35.20-2.63Q35.06-2.63 35.06-2.63L35.06-2.63L35.06-3.70Q35.06-3.70 35.20-3.70L35.20-3.70Q35.95-3.61 36.75-3.61L36.75-3.61L38.20-3.61L38.20-5.77L35.39-5.77Q34.69-4.55 34.31-3.94L34.31-3.94Q34.03-4.08 33.52-4.22L33.52-4.22Q33.28-4.31 33.28-4.31L33.28-4.31Q34.92-6.05 35.34-8.63L35.34-8.63Q36.61-8.34 36.70-8.11L36.70-8.11Q36.70-8.06 36.56-7.92L36.56-7.92Q36.14-7.45 35.81-6.61L35.81-6.61L38.20-6.61L38.20-8.34Q38.20-8.86 38.11-9.38L38.11-9.38Q38.11-9.47 38.11-9.52ZM54.09-9.52L54.09-9.52Q54.56-8.81 54.66-8.39L54.66-8.39Q54.66-8.39 54.52-8.39L54.52-8.39Q54.19-8.44 53.86-8.39L53.86-8.39Q53.72-8.39 53.11-8.30L53.11-8.30Q52.41-8.20 52.08-8.16L52.08-8.16L52.08-6.38L54-6.38Q54.94-6.38 55.55-6.47L55.55-6.47Q55.64-6.47 55.64-6.47L55.64-6.47L55.64-5.34Q55.64-5.34 55.55-5.34L55.55-5.34Q54.89-5.44 54-5.44L54-5.44L52.08-5.44L52.08-3.89L53.25-3.89Q54.14-3.89 54.52-3.98L54.52-3.98Q54.42-3.61 54.42-2.58L54.42-2.58L54.42-0.89Q54.47-0.05 54.52 0.61L54.52 0.61Q54.52 0.89 54.52 0.94L54.52 0.94L53.39 0.94Q53.48 0.75 53.48 0L53.48 0L49.73 0Q49.73 0.80 49.83 0.98L49.83 0.98L48.66 0.98Q48.66 0.94 48.66 0.75L48.66 0.75Q48.75 0.09 48.75-0.61L48.75-0.61L48.75-2.53Q48.75-3.47 48.61-3.98L48.61-3.98Q48.98-3.89 49.97-3.89L49.97-3.89L51.09-3.89L51.09-5.39L49.50-5.39Q48.70-5.39 48.09-5.30L48.09-5.30Q47.91-5.30 47.86-5.30L47.86-5.30L47.86-6.47Q47.86-6.47 48-6.47L48-6.47Q48.61-6.38 49.45-6.38L49.45-6.38L51.09-6.38L51.09-8.02Q50.16-7.88 48.75-7.69L48.75-7.69Q48.61-8.02 48.28-8.48L48.28-8.48Q48.19-8.67 48.19-8.67L48.19-8.67Q51.28-8.63 54.09-9.52ZM45.56-8.48L46.22-9.38Q46.83-9.05 48.14-8.11L48.14-8.11L47.48-7.22Q46.55-8.02 45.56-8.48L45.56-8.48ZM44.95-5.58L45.47-6.47Q46.59-6.05 47.53-5.44L47.53-5.44L46.97-4.45Q46.31-5.02 44.95-5.58L44.95-5.58ZM46.50-4.03L46.50-4.03L47.53-3.52Q47.39-2.91 47.16-1.97L47.16-1.97Q46.88-0.80 46.64-0.05L46.64-0.05Q46.55 0.14 46.55 0.61L46.55 0.61Q46.50 0.94 46.45 0.98L46.45 0.98Q46.36 1.08 45.33 0.19L45.33 0.19Q46.08-1.45 46.50-4.03ZM53.44-0.80L53.44-3L49.73-3L49.73-0.80L53.44-0.80ZM67.55-9.23L67.55-9.23L67.55-8.20Q66.56-8.25 64.92-8.30L64.92-8.30L62.86-8.30L62.86-7.22L64.36-7.22Q66-7.22 66.38-7.27L66.38-7.27Q66.38-6.98 66.33-6.19L66.33-6.19Q66.28-5.72 66.28-5.63L66.28-5.63L66.28-4.78Q66.28-3.75 66.38-2.91L66.38-2.91Q65.91-3 64.36-3L64.36-3L62.86-3Q62.72-1.55 62.20-0.89L62.20-0.89Q64.64-0.05 67.78-0.23L67.78-0.23Q67.36 0.23 67.22 0.89L67.22 0.89Q63.42 0.66 61.69-0.23L61.69-0.23Q60.66 0.66 57.66 1.13L57.66 1.13Q57.42 0.56 56.91 0.14L56.91 0.14Q59.81-0.05 60.89-0.70L60.89-0.70Q60.33-1.08 59.06-2.25L59.06-2.25L60-2.81Q60.75-1.78 61.45-1.31L61.45-1.31Q61.83-1.97 61.92-3L61.92-3L60.47-3Q59.95-3 58.45-2.91L58.45-2.91Q58.55-3.80 58.55-4.83L58.55-4.83L58.55-5.63Q58.50-6.75 58.45-7.27L58.45-7.27Q60.09-7.22 60.38-7.22L60.38-7.22L61.97-7.22L61.97-8.30L59.77-8.30Q58.45-8.30 57.38-8.20L57.38-8.20L57.38-9.23Q58.83-9.14 59.72-9.14L59.72-9.14L64.92-9.14Q66.47-9.19 67.55-9.23ZM65.30-6.47L62.86-6.47L62.86-5.53L65.30-5.53L65.30-6.47ZM61.97-5.53L61.97-6.47L59.48-6.47L59.48-5.53L61.97-5.53ZM65.30-3.75L65.30-4.78L62.86-4.78L62.86-3.75L65.30-3.75ZM61.97-4.78L59.48-4.78L59.48-3.75L61.97-3.75L61.97-4.78ZM75.80-9.75L75.80-9.75Q76.88-9.56 77.02-9.38L77.02-9.38Q77.02-9.33 76.92-9.23L76.92-9.23Q76.59-8.95 76.31-8.48L76.31-8.48L78.09-8.48Q79.13-8.48 79.64-8.58L79.64-8.58Q79.73-8.58 79.73-8.58L79.73-8.58L79.73-7.64Q79.73-7.64 79.64-7.64L79.64-7.64Q79.08-7.73 78.05-7.73L78.05-7.73L77.63-7.73Q77.77-7.41 77.95-6.98L77.95-6.98Q78.05-6.75 78.09-6.61L78.09-6.61L77.06-6.47Q76.88-7.45 76.69-7.73L76.69-7.73L75.94-7.73Q75.42-6.89 74.95-6.38L74.95-6.38L73.97-6.66Q75.14-7.50 75.80-9.75ZM71.20-9.70L71.20-9.70Q72.28-9.38 72.33-9.23L72.33-9.23Q72.33-9.19 72.19-9.09L72.19-9.09Q71.86-8.86 71.58-8.48L71.58-8.48L72.94-8.48Q73.83-8.48 74.39-8.58L74.39-8.58Q74.48-8.58 74.53-8.58L74.53-8.58L74.53-7.64Q74.48-7.64 74.39-7.64L74.39-7.64Q73.92-7.73 73.03-7.73L73.03-7.73L72.84-7.73Q73.03-7.31 73.27-6.61L73.27-6.61L72.28-6.56Q72.23-7.17 71.91-7.73L71.91-7.73L71.11-7.73Q71.02-7.64 70.97-7.55L70.97-7.55Q70.55-6.94 70.13-6.52L70.13-6.52Q69.98-6.38 69.80-6.19L69.80-6.19L68.81-6.66Q70.45-7.78 71.20-9.70ZM70.88-6.09L71.77-6.42Q72.28-5.72 72.66-4.92L72.66-4.92L71.77-4.55Q71.48-5.25 70.88-6.09L70.88-6.09ZM78.98-6.14L78.98-6.14Q78.89-5.77 78.89-4.88L78.89-4.88L78.89 0Q79.22 1.17 76.78 1.22L76.78 1.22Q76.64 0.42 76.36 0L76.36 0Q77.95 0.42 77.86-0.42L77.86-0.42L77.86-5.30L74.67-5.30Q73.78-5.30 73.08-5.20L73.08-5.20Q72.98-5.20 72.98-5.20L72.98-5.20L72.98-6.23Q73.03-6.23 73.13-6.23L73.13-6.23Q73.73-6.14 74.67-6.14L74.67-6.14L77.63-6.14Q78.19-6.14 78.66-6.19L78.66-6.19Q78.80-6.19 78.84-6.19L78.84-6.19Q78.98-6.23 78.98-6.14ZM69.98-5.06L69.98-5.06Q71.11-5.02 71.20-4.83L71.20-4.83Q71.20-4.78 71.16-4.69L71.16-4.69Q70.97-4.31 70.97-3.80L70.97-3.80L70.97-0.66Q70.97 0.47 71.06 1.03L71.06 1.03Q71.06 1.13 71.06 1.13L71.06 1.13L69.94 1.13Q70.03 0.70 70.03-0.61L70.03-0.61L70.03-3.84Q70.03-4.88 69.98-5.06ZM76.45-3.33L76.45-3.33L76.45-1.69Q76.45-0.70 76.55-0.33L76.55-0.33Q76.36-0.42 75.33-0.42L75.33-0.42L73.41-0.42Q72.42-0.42 72.23-0.33L72.23-0.33Q72.33-0.75 72.33-1.45L72.33-1.45L72.33-3.23Q72.33-4.13 72.23-4.50L72.23-4.50Q72.56-4.41 73.50-4.41L73.50-4.41L75.33-4.41Q76.45-4.41 76.55-4.45L76.55-4.45Q76.45-4.27 76.45-3.33ZM75.52-3.70L73.22-3.70L73.22-2.72L75.52-2.72L75.52-3.70ZM75.52-2.11L73.27-2.11L73.27-1.13L75.52-1.13L75.52-2.11ZM88.13-9.66L88.13-9.66Q89.53-9.42 89.48-9.23L89.48-9.23Q89.44-9.14 89.25-9L89.25-9Q88.64-8.63 88.08-7.64L88.08-7.64L89.16-7.64Q89.72-7.64 90.23-7.73L90.23-7.73Q90.33-7.73 90.38-7.73L90.38-7.73Q90.33-7.64 90.33-6.52L90.33-6.52L90.33-3.98Q90.33-3.56 90.38-3L90.38-3Q90.38-2.91 90.38-2.86L90.38-2.86Q90.33-2.91 89.02-2.91L89.02-2.91L86.86-2.91L86.86-1.92L89.25-1.92Q90.75-1.92 91.55-2.02L91.55-2.02Q91.64-2.02 91.69-2.02L91.69-2.02L91.69-0.89Q91.69-0.89 91.59-0.89L91.59-0.89Q90.70-1.08 89.30-1.08L89.30-1.08L86.86-1.08L86.86-0.23Q86.86 0.42 86.95 0.94L86.95 0.94Q86.95 1.03 86.95 1.08L86.95 1.08L85.83 1.08Q85.83 1.03 85.88 0.94L85.88 0.94Q85.97 0.52 85.97-0.23L85.97-0.23L85.97-1.08L83.44-1.08Q82.08-1.08 81.33-0.94L81.33-0.94Q81.23-0.94 81.19-0.94L81.19-0.94L81.19-1.97Q81.19-1.97 81.28-1.97L81.28-1.97Q81.89-1.92 83.39-1.92L83.39-1.92L85.97-1.92L85.97-2.91L83.67-2.91Q82.78-2.91 82.50-2.81L82.50-2.81Q82.59-3.28 82.59-4.27L82.59-4.27L82.59-6.47Q82.59-7.13 82.55-7.73L82.55-7.73Q82.92-7.64 83.86-7.64L83.86-7.64L84.84-7.64Q84.52-8.34 83.72-9.19L83.72-9.19L84.56-9.61Q85.13-9.19 85.83-8.16L85.83-8.16L84.94-7.64L87.14-7.64Q87.61-8.25 88.13-9.66ZM89.34-6.89L86.86-6.89L86.86-5.63L89.34-5.63L89.34-6.89ZM85.97-5.63L85.97-6.89L83.53-6.89L83.53-5.63L85.97-5.63ZM89.34-4.97L86.86-4.97L86.86-3.70L89.34-3.70L89.34-4.97ZM85.97-4.97L83.53-4.97L83.53-3.70L85.97-3.70L85.97-4.97Z" transform="translate(-0.84375, 9.75)"></path></g></g></mask></svg>